<svg xmlns="http://www.w3.org/2000/svg" xmlns:xlink="http://www.w3.org/1999/xlink" width="313pt" height="358pt" viewBox="0 0 313 357.79"><g id="graph0" class="graph" transform="scale(1 1) rotate(0) translate(4 353.79)"><title>G</title><polygon fill="#fff" stroke="transparent" points="-4 4 -4 -353.79 309 -353.79 309 4 -4 4"/><g id="clust1" class="cluster"><title>cluster_0</title><polygon fill="transparent" stroke="transparent" points="19 -253.19 19 -341.79 286 -341.79 286 -253.19 19 -253.19"/><text x="152.5" y="-326.59" font-family="Indie Flower" font-size="14" text-anchor="middle">Supported Format Types</text></g><g id="clust3" class="cluster"><title>cluster_1</title><polygon fill="transparent" stroke="transparent" points="8 -130.6 8 -234.19 297 -234.19 297 -130.6 8 -130.6"/><text x="152.5" y="-218.99" font-family="Indie Flower" font-size="14" text-anchor="middle">Workbook Format Conversions</text><text x="152.5" y="-203.99" font-family="Indie Flower" font-size="14" text-anchor="middle">(blue arrow)</text></g><g id="clust5" class="cluster"><title>cluster_2</title><polygon fill="transparent" stroke="transparent" points="8 -8 8 -111.6 289 -111.6 289 -8 8 -8"/><text x="148.5" y="-96.4" font-family="Indie Flower" font-size="14" text-anchor="middle">Single-Worksheet Format Conversions</text><text x="148.5" y="-81.4" font-family="Indie Flower" font-size="14" text-anchor="middle">(green arrow)</text></g><g id="node1" class="node"><title>XL</title><ellipse cx="59" cy="-285.99" fill="#0f0" stroke="#0f0" rx="32.49" ry="18"/><text x="59" y="-282.29" font-family="Indie Flower" font-size="14" text-anchor="middle">Excel</text></g><g id="node2" class="node"><title>CSF</title><ellipse cx="152" cy="-285.99" fill="none" stroke="#000" rx="20.63" ry="20.63"/><ellipse cx="152" cy="-285.99" fill="none" stroke="#000" rx="24.6" ry="24.6"/><text x="152" y="-282.29" font-family="Indie Flower" font-size="14" text-anchor="middle">JS</text></g><g id="node4" class="node"><title>x1i</title><ellipse cx="49" cy="-163.39" fill="none" stroke="#000" rx="33.29" ry="18"/><text x="49" y="-159.69" font-family="Indie Flower" font-size="14" text-anchor="middle">XLSX</text></g><g id="node3" class="node"><title>OLD</title><ellipse cx="245" cy="-285.99" fill="#0ff" stroke="#0ff" rx="33.29" ry="18"/><text x="245" y="-282.29" font-family="Indie Flower" font-size="14" text-anchor="middle">Other</text></g><g id="node5" class="node"><title>c1</title><ellipse cx="152" cy="-163.39" fill="none" stroke="#000" rx="20.63" ry="20.63"/><ellipse cx="152" cy="-163.39" fill="none" stroke="#000" rx="24.6" ry="24.6"/><text x="152" y="-159.69" font-family="Indie Flower" font-size="14" text-anchor="middle">JS</text></g><g id="node6" class="node"><title>x1o</title><ellipse cx="256" cy="-163.39" fill="none" stroke="#000" rx="33.29" ry="18"/><text x="256" y="-159.69" font-family="Indie Flower" font-size="14" text-anchor="middle">XLSB</text></g><g id="edge3" class="edge"><title>x1i-&gt;c1</title><path fill="none" stroke="#00f" d="M82.16,-163.39C93.21,-163.39 105.56,-163.39 116.76,-163.39"/><polygon fill="#00f" stroke="#00f" points="117.07 -166.89 127.07 -163.39 117.07 -159.89 117.07 -166.89"/><text x="104.67" y="-170.19" font-family="Indie Flower" font-size="14" text-anchor="middle">read</text></g><g id="node7" class="node"><title>x2i</title><ellipse cx="49" cy="-40.8" fill="none" stroke="#000" rx="33.29" ry="18"/><text x="49" y="-37.1" font-family="Indie Flower" font-size="14" text-anchor="middle">SYLK</text></g><g id="edge4" class="edge"><title>c1-&gt;x1o</title><path fill="none" stroke="#00f" d="M176.91,-163.39C187.61,-163.39 200.44,-163.39 212.62,-163.39"/><polygon fill="#00f" stroke="#00f" points="212.64 -166.89 222.64 -163.39 212.64 -159.89 212.64 -166.89"/><text x="199.83" y="-170.19" font-family="Indie Flower" font-size="14" text-anchor="middle">write</text></g><g id="node8" class="node"><title>c2</title><ellipse cx="152" cy="-40.8" fill="none" stroke="#000" rx="20.63" ry="20.63"/><ellipse cx="152" cy="-40.8" fill="none" stroke="#000" rx="24.6" ry="24.6"/><text x="152" y="-37.1" font-family="Indie Flower" font-size="14" text-anchor="middle">JS</text></g><g id="node9" class="node"><title>x2o</title><ellipse cx="252" cy="-40.8" fill="none" stroke="#000" rx="28.7" ry="18"/><text x="252" y="-37.1" font-family="Indie Flower" font-size="14" text-anchor="middle">CSV</text></g><g id="edge5" class="edge"><title>x2i-&gt;c2</title><path fill="none" stroke="#458b74" d="M82.16,-40.8C93.21,-40.8 105.56,-40.8 116.76,-40.8"/><polygon fill="#458b74" stroke="#458b74" points="117.07 -44.3 127.07 -40.8 117.07 -37.3 117.07 -44.3"/><text x="104.67" y="-47.6" font-family="Indie Flower" font-size="14" text-anchor="middle">read</text></g><g id="edge6" class="edge"><title>c2-&gt;x2o</title><path fill="none" stroke="#458b74" d="M176.98,-40.8C187.8,-40.8 200.74,-40.8 212.8,-40.8"/><polygon fill="#458b74" stroke="#458b74" points="213.09 -44.3 223.09 -40.8 213.09 -37.3 213.09 -44.3"/><text x="200.1" y="-47.6" font-family="Indie Flower" font-size="14" text-anchor="middle">write</text></g></g></svg>