<svg xmlns="http://www.w3.org/2000/svg" width="100%" height="100%" version="1.1" viewBox="0 0 1024 1024"><polygon fill="#fff" points="0 0 0 1024 1024 1024 1024 0"/><svg xmlns="http://www.w3.org/2000/svg" width="256" height="256" x="64" y="384" viewBox="0 0 1024 1024"><defs><clipPath id="grid"><polygon points="0 0 0 1024 1024 1024 1024 780"/></clipPath><clipPath id="bars"><polygon points="0 0 1024 0 1024 780"/></clipPath></defs><polygon fill="#fff" points="0 0 0 1024 1024 1024 1024 0"/><polygon fill="#63deab" stroke="#fff" stroke-width="10" points="0 0 0 1024 1024 1024 1024 780"/><g clip-path="url(#bars)"><rect width="192" height="1000" x="288" y="160" fill="#a2c5f0" stroke="#fff" stroke-width="10"/><rect width="192" height="1000" x="544" y="288" fill="#ffbdbd" stroke="#fff" stroke-width="10"/><rect width="192" height="1000" x="800" y="64" fill="#a2c5f0" stroke="#fff" stroke-width="10"/></g><g clip-path="url(#grid)"><line x1="0" x2="1024" y1="128" y2="128" stroke="#fff" stroke-width="10"/><line x1="0" x2="1024" y1="256" y2="256" stroke="#fff" stroke-width="10"/><line x1="0" x2="1024" y1="384" y2="384" stroke="#fff" stroke-width="10"/><line x1="0" x2="1024" y1="512" y2="512" stroke="#fff" stroke-width="10"/><line x1="0" x2="1024" y1="640" y2="640" stroke="#fff" stroke-width="10"/><line x1="0" x2="1024" y1="768" y2="768" stroke="#fff" stroke-width="10"/><line x1="0" x2="1024" y1="896" y2="896" stroke="#fff" stroke-width="10"/><line x1="256" x2="256" y1="0" y2="1024" stroke="#fff" stroke-width="10"/><line x1="512" x2="512" y1="0" y2="1024" stroke="#fff" stroke-width="10"/><line x1="768" x2="768" y1="0" y2="1024" stroke="#fff" stroke-width="10"/></g><line x1="0" x2="1024" y1="0" y2="780" stroke="#fff" stroke-width="10"/></svg><svg xmlns="http://www.w3.org/2000/svg" width="256" height="256" x="384" y="384" version="1.1" viewBox="-100 -100 512 512"><path fill="transparent" stroke="#E4187A" stroke-width="16" d="M0,0v200a100,100,90,0,0,200,0a100,100,90,0,0,0,-200z" transform="translate(160,320) rotate(225)"/></svg><svg xmlns="http://www.w3.org/2000/svg" width="256" height="256" x="704" y="384" viewBox="112 0 1024 1024"><path fill="transparent" stroke="#000" stroke-width="16" d="M128,16h480l256,256v736h-736z"/><path fill="transparent" stroke="#000" stroke-linejoin="round" stroke-width="16" d="M608,16l256,256h-256z"/><rect width="552" height="552" x="220" y="348" fill="transparent" stroke="#000" stroke-width="16"/><line x1="220" x2="772" y1="486" y2="486" stroke="#000" stroke-width="8"/><line x1="220" x2="772" y1="624" y2="624" stroke="#000" stroke-width="8"/><line x1="220" x2="772" y1="762" y2="762" stroke="#000" stroke-width="8"/><line x1="496" x2="496" y1="348" y2="900" stroke="#000" stroke-width="8"/></svg></svg>