<svg xmlns="http://www.w3.org/2000/svg" width="100%" height="100%" version="1.1" viewBox="0 0 1024 1024"><polygon fill="#fff" points="0 0 0 1024 1024 1024 1024 0"/><g><path fill="transparent" stroke="#000" stroke-width="8" d="M128,320h768v192l-192,192h-384l-192,-192z"/><rect width="64" height="256" x="256" y="64" fill="transparent" stroke="#000" stroke-width="8" rx="8"/><rect width="64" height="256" x="704" y="64" fill="transparent" stroke="#000" stroke-width="8" rx="8"/><rect width="128" height="256" x="448" y="704" fill="transparent" stroke="#000" stroke-width="8"/></g><svg xmlns="http://www.w3.org/2000/svg" width="256" height="256" x="384" y="384" viewBox="0 0 1024 1024"><defs><clipPath id="grid"><polygon points="0 0 0 1024 1024 1024 1024 780"/></clipPath><clipPath id="bars"><polygon points="0 0 1024 0 1024 780"/></clipPath></defs><polygon fill="#fff" points="0 0 0 1024 1024 1024 1024 0"/><polygon fill="#63deab" stroke="#fff" stroke-width="10" points="0 0 0 1024 1024 1024 1024 780"/><g clip-path="url(#bars)"><rect width="192" height="1000" x="288" y="160" fill="#a2c5f0" stroke="#fff" stroke-width="10"/><rect width="192" height="1000" x="544" y="288" fill="#ffbdbd" stroke="#fff" stroke-width="10"/><rect width="192" height="1000" x="800" y="64" fill="#a2c5f0" stroke="#fff" stroke-width="10"/></g><g clip-path="url(#grid)"><line x1="0" x2="1024" y1="128" y2="128" stroke="#fff" stroke-width="10"/><line x1="0" x2="1024" y1="256" y2="256" stroke="#fff" stroke-width="10"/><line x1="0" x2="1024" y1="384" y2="384" stroke="#fff" stroke-width="10"/><line x1="0" x2="1024" y1="512" y2="512" stroke="#fff" stroke-width="10"/><line x1="0" x2="1024" y1="640" y2="640" stroke="#fff" stroke-width="10"/><line x1="0" x2="1024" y1="768" y2="768" stroke="#fff" stroke-width="10"/><line x1="0" x2="1024" y1="896" y2="896" stroke="#fff" stroke-width="10"/><line x1="256" x2="256" y1="0" y2="1024" stroke="#fff" stroke-width="10"/><line x1="512" x2="512" y1="0" y2="1024" stroke="#fff" stroke-width="10"/><line x1="768" x2="768" y1="0" y2="1024" stroke="#fff" stroke-width="10"/></g><line x1="0" x2="1024" y1="0" y2="780" stroke="#fff" stroke-width="10"/></svg></svg>